<?xml version="1.0" encoding="UTF-8" standalone="no"?>
<svg
   xmlns:dc="http://purl.org/dc/elements/1.1/"
   xmlns:cc="http://creativecommons.org/ns#"
   xmlns:rdf="http://www.w3.org/1999/02/22-rdf-syntax-ns#"
   xmlns:svg="http://www.w3.org/2000/svg"
   xmlns="http://www.w3.org/2000/svg"
   xmlns:sodipodi="http://sodipodi.sourceforge.net/DTD/sodipodi-0.dtd"
   xmlns:inkscape="http://www.inkscape.org/namespaces/inkscape"
   width="520"
   height="520"
   viewBox="-10 -10 520 520"
   version="1.1"
   id="svg2332"
   sodipodi:docname="Grid-10-10-Medium-Pieces.svg"
   inkscape:version="0.92.4 (5da689c313, 2019-01-14)">
  <metadata
     id="metadata2336">
    <rdf:RDF>
      <cc:Work
         rdf:about="">
        <dc:format>image/svg+xml</dc:format>
        <dc:type
           rdf:resource="http://purl.org/dc/dcmitype/StillImage" />
        <dc:title></dc:title>
      </cc:Work>
    </rdf:RDF>
  </metadata>
  <sodipodi:namedview
     pagecolor="#ffffff"
     bordercolor="#666666"
     borderopacity="1"
     objecttolerance="10"
     gridtolerance="10"
     guidetolerance="10"
     inkscape:pageopacity="0"
     inkscape:pageshadow="2"
     inkscape:window-width="2256"
     inkscape:window-height="1410"
     id="namedview2334"
     showgrid="false"
     inkscape:zoom="1.8153846"
     inkscape:cx="193.68703"
     inkscape:cy="280.3285"
     inkscape:window-x="-11"
     inkscape:window-y="-11"
     inkscape:window-maximized="1"
     inkscape:current-layer="svg2332" />
  <defs
     id="defs2096">
    <style
       type="text/css"
       id="style2094"><![CDATA[
line {
    stroke-linecap: square;
    stroke-width: 1;
}
]]></style>
  </defs>
  <line
     x1="50.0"
     y1="0.0"
     x2="50.0"
     y2="50.0"
     stroke="#000000"
     id="line2098" />
  <line
     x1="50.0"
     y1="50.0"
     x2="50.0"
     y2="100.0"
     stroke="#000000"
     id="line2100" />
  <line
     x1="0.0"
     y1="150.0"
     x2="50.0"
     y2="150.0"
     stroke="#000000"
     id="line2102" />
  <line
     x1="50.0"
     y1="150.0"
     x2="50.0"
     y2="200.0"
     stroke="#000000"
     id="line2104" />
  <line
     x1="50.0"
     y1="200.0"
     x2="50.0"
     y2="250.0"
     stroke="#000000"
     id="line2106" />
  <line
     x1="0.0"
     y1="350.0"
     x2="50.0"
     y2="350.0"
     stroke="#FF0000"
     id="line2108" />
  <line
     x1="50.0"
     y1="300.0"
     x2="50.0"
     y2="350.0"
     stroke="#00FF00"
     id="line2110" />
  <line
     x1="50.0"
     y1="400.0"
     x2="50.0"
     y2="450.0"
     stroke="#000000"
     id="line2112" />
  <line
     x1="0.0"
     y1="500.0"
     x2="50.0"
     y2="500.0"
     stroke="#000000"
     id="line2114" />
  <line
     x1="50.0"
     y1="450.0"
     x2="50.0"
     y2="500.0"
     stroke="#000000"
     id="line2116" />
  <line
     x1="100.0"
     y1="0.0"
     x2="100.0"
     y2="50.0"
     stroke="#FF0000"
     id="line2118" />
  <line
     x1="50.0"
     y1="100.0"
     x2="100.0"
     y2="100.0"
     stroke="#000000"
     id="line2120" />
  <line
     x1="100.0"
     y1="100.0"
     x2="100.0"
     y2="150.0"
     stroke="#000000"
     id="line2122" />
  <line
     x1="100.0"
     y1="150.0"
     x2="100.0"
     y2="200.0"
     stroke="#000000"
     id="line2124" />
  <line
     x1="50.0"
     y1="250.0"
     x2="100.0"
     y2="250.0"
     stroke="#000000"
     id="line2126" />
  <line
     x1="100.0"
     y1="200.0"
     x2="100.0"
     y2="250.0"
     stroke="#FF0000"
     id="line2128" />
  <line
     x1="100.0"
     y1="250.0"
     x2="100.0"
     y2="300.0"
     stroke="#000000"
     id="line2130" />
  <line
     x1="50.0"
     y1="350.0"
     x2="100.0"
     y2="350.0"
     stroke="#000000"
     id="line2132" />
  <line
     x1="50.0"
     y1="400.0"
     x2="100.0"
     y2="400.0"
     stroke="#000000"
     id="line2134" />
  <line
     x1="50.0"
     y1="500.0"
     x2="100.0"
     y2="500.0"
     stroke="#000000"
     id="line2136" />
  <line
     x1="100.0"
     y1="450.0"
     x2="100.0"
     y2="500.0"
     stroke="#FF0000"
     id="line2138" />
  <line
     x1="100.0"
     y1="50.0"
     x2="150.0"
     y2="50.0"
     stroke="#000000"
     id="line2140" />
  <line
     x1="100.0"
     y1="100.0"
     x2="150.0"
     y2="100.0"
     stroke="#00FF00"
     id="line2142" />
  <line
     x1="100.0"
     y1="150.0"
     x2="150.0"
     y2="150.0"
     stroke="#FF0000"
     id="line2144" />
  <line
     x1="100.0"
     y1="200.0"
     x2="150.0"
     y2="200.0"
     stroke="#000000"
     id="line2146" />
  <line
     x1="150.0"
     y1="200.0"
     x2="150.0"
     y2="250.0"
     stroke="#000000"
     id="line2148" />
  <line
     x1="100.0"
     y1="300.0"
     x2="150.0"
     y2="300.0"
     stroke="#000000"
     id="line2150" />
  <line
     x1="100.0"
     y1="350.0"
     x2="150.0"
     y2="350.0"
     stroke="#000000"
     id="line2152" />
  <line
     x1="150.0"
     y1="300.0"
     x2="150.0"
     y2="350.0"
     stroke="#000000"
     id="line2154" />
  <line
     x1="100.0"
     y1="400.0"
     x2="150.0"
     y2="400.0"
     stroke="#000000"
     id="line2156" />
  <line
     x1="100.0"
     y1="450.0"
     x2="150.0"
     y2="450.0"
     stroke="#000000"
     id="line2158" />
  <line
     x1="100.0"
     y1="500.0"
     x2="150.0"
     y2="500.0"
     stroke="#000000"
     id="line2160" />
  <line
     x1="150.0"
     y1="50.0"
     x2="200.0"
     y2="50.0"
     stroke="#000000"
     id="line2162" />
  <line
     x1="200.0"
     y1="50.0"
     x2="200.0"
     y2="100.0"
     stroke="#000000"
     id="line2164" />
  <line
     x1="150.0"
     y1="150.0"
     x2="200.0"
     y2="150.0"
     stroke="#000000"
     id="line2166" />
  <line
     x1="200.0"
     y1="100.0"
     x2="200.0"
     y2="150.0"
     stroke="#000000"
     id="line2168" />
  <line
     x1="150.0"
     y1="250.0"
     x2="200.0"
     y2="250.0"
     stroke="#000000"
     id="line2170" />
  <line
     x1="200.0"
     y1="200.0"
     x2="200.0"
     y2="250.0"
     stroke="#00FF00"
     id="line2172" />
  <line
     x1="200.0"
     y1="250.0"
     x2="200.0"
     y2="300.0"
     stroke="#00FF00"
     id="line2174" />
  <line
     x1="150.0"
     y1="350.0"
     x2="200.0"
     y2="350.0"
     stroke="#000000"
     id="line2176" />
  <line
     x1="150.0"
     y1="400.0"
     x2="200.0"
     y2="400.0"
     stroke="#000000"
     id="line2178" />
  <line
     x1="150.0"
     y1="450.0"
     x2="200.0"
     y2="450.0"
     stroke="#000000"
     id="line2180" />
  <line
     x1="150.0"
     y1="500.0"
     x2="200.0"
     y2="500.0"
     stroke="#000000"
     id="line2182" />
  <line
     x1="250.0"
     y1="0.0"
     x2="250.0"
     y2="50.0"
     stroke="#000000"
     id="line2184" />
  <line
     x1="250.0"
     y1="50.0"
     x2="250.0"
     y2="100.0"
     stroke="#00FF00"
     id="line2186" />
  <line
     x1="200.0"
     y1="150.0"
     x2="250.0"
     y2="150.0"
     stroke="#000000"
     id="line2188" />
  <line
     x1="250.0"
     y1="150.0"
     x2="250.0"
     y2="200.0"
     stroke="#000000"
     id="line2190" />
  <line
     x1="200.0"
     y1="250.0"
     x2="250.0"
     y2="250.0"
     stroke="#000000"
     id="line2192" />
  <line
     x1="200.0"
     y1="350.0"
     x2="250.0"
     y2="350.0"
     stroke="#000000"
     id="line2194" />
  <line
     x1="250.0"
     y1="300.0"
     x2="250.0"
     y2="350.0"
     stroke="#000000"
     id="line2196" />
  <line
     x1="200.0"
     y1="400.0"
     x2="250.0"
     y2="400.0"
     stroke="#FF0000"
     id="line2198" />
  <line
     x1="250.0"
     y1="350.0"
     x2="250.0"
     y2="400.0"
     stroke="#000000"
     id="line2200" />
  <line
     x1="200.0"
     y1="450.0"
     x2="250.0"
     y2="450.0"
     stroke="#000000"
     id="line2202" />
  <line
     x1="250.0"
     y1="400.0"
     x2="250.0"
     y2="450.0"
     stroke="#000000"
     id="line2204" />
  <line
     x1="200.0"
     y1="500.0"
     x2="250.0"
     y2="500.0"
     stroke="#000000"
     id="line2206" />
  <line
     x1="250.0"
     y1="50.0"
     x2="300.0"
     y2="50.0"
     stroke="#FF0000"
     id="line2208" />
  <line
     x1="300.0"
     y1="50.0"
     x2="300.0"
     y2="100.0"
     stroke="#000000"
     id="line2210" />
  <line
     x1="250.0"
     y1="150.0"
     x2="300.0"
     y2="150.0"
     stroke="#000000"
     id="line2212" />
  <line
     x1="300.0"
     y1="100.0"
     x2="300.0"
     y2="150.0"
     stroke="#000000"
     id="line2214" />
  <line
     x1="250.0"
     y1="200.0"
     x2="300.0"
     y2="200.0"
     stroke="#000000"
     id="line2216" />
  <line
     x1="250.0"
     y1="250.0"
     x2="300.0"
     y2="250.0"
     stroke="#FF0000"
     id="line2218" />
  <line
     x1="300.0"
     y1="200.0"
     x2="300.0"
     y2="250.0"
     stroke="#000000"
     id="line2220" />
  <line
     x1="250.0"
     y1="300.0"
     x2="300.0"
     y2="300.0"
     stroke="#000000"
     id="line2222" />
  <line
     x1="300.0"
     y1="250.0"
     x2="300.0"
     y2="300.0"
     stroke="#000000"
     id="line2224" />
  <line
     x1="300.0"
     y1="350.0"
     x2="300.0"
     y2="400.0"
     stroke="#00FF00"
     id="line2226" />
  <line
     x1="250.0"
     y1="450.0"
     x2="300.0"
     y2="450.0"
     stroke="#000000"
     id="line2228" />
  <line
     x1="300.0"
     y1="400.0"
     x2="300.0"
     y2="450.0"
     stroke="#FF0000"
     id="line2230" />
  <line
     x1="250.0"
     y1="500.0"
     x2="300.0"
     y2="500.0"
     stroke="#000000"
     id="line2232" />
  <line
     x1="350.0"
     y1="0.0"
     x2="350.0"
     y2="50.0"
     stroke="#00FF00"
     id="line2234" />
  <line
     x1="300.0"
     y1="100.0"
     x2="350.0"
     y2="100.0"
     stroke="#000000"
     id="line2236" />
  <line
     x1="350.0"
     y1="100.0"
     x2="350.0"
     y2="150.0"
     stroke="#FF0000"
     id="line2238" />
  <line
     x1="350.0"
     y1="200.0"
     x2="350.0"
     y2="250.0"
     stroke="#00FF00"
     id="line2240" />
  <line
     x1="300.0"
     y1="300.0"
     x2="350.0"
     y2="300.0"
     stroke="#000000"
     id="line2242" />
  <line
     x1="300.0"
     y1="400.0"
     x2="350.0"
     y2="400.0"
     stroke="#000000"
     id="line2244" />
  <line
     x1="350.0"
     y1="400.0"
     x2="350.0"
     y2="450.0"
     stroke="#000000"
     id="line2246" />
  <line
     x1="300.0"
     y1="500.0"
     x2="350.0"
     y2="500.0"
     stroke="#000000"
     id="line2248" />
  <line
     x1="350.0"
     y1="450.0"
     x2="350.0"
     y2="500.0"
     stroke="#000000"
     id="line2250" />
  <line
     x1="400.0"
     y1="50.0"
     x2="400.0"
     y2="100.0"
     stroke="#000000"
     id="line2252" />
  <line
     x1="350.0"
     y1="150.0"
     x2="400.0"
     y2="150.0"
     stroke="#000000"
     id="line2254" />
  <line
     x1="400.0"
     y1="100.0"
     x2="400.0"
     y2="150.0"
     stroke="#000000"
     id="line2256" />
  <line
     x1="350.0"
     y1="250.0"
     x2="400.0"
     y2="250.0"
     stroke="#00FF00"
     id="line2258" />
  <line
     x1="350.0"
     y1="300.0"
     x2="400.0"
     y2="300.0"
     stroke="#000000"
     id="line2260" />
  <line
     x1="400.0"
     y1="250.0"
     x2="400.0"
     y2="300.0"
     stroke="#FF0000"
     id="line2262" />
  <line
     x1="350.0"
     y1="350.0"
     x2="400.0"
     y2="350.0"
     stroke="#00FF00"
     id="line2264" />
  <line
     x1="400.0"
     y1="300.0"
     x2="400.0"
     y2="350.0"
     stroke="#000000"
     id="line2266" />
  <line
     x1="350.0"
     y1="400.0"
     x2="400.0"
     y2="400.0"
     stroke="#FF0000"
     id="line2268" />
  <line
     x1="400.0"
     y1="350.0"
     x2="400.0"
     y2="400.0"
     stroke="#000000"
     id="line2270" />
  <line
     x1="350.0"
     y1="500.0"
     x2="400.0"
     y2="500.0"
     stroke="#000000"
     id="line2272" />
  <line
     x1="400.0"
     y1="50.0"
     x2="450.0"
     y2="50.0"
     stroke="#000000"
     id="line2274" />
  <line
     x1="450.0"
     y1="0.0"
     x2="450.0"
     y2="50.0"
     stroke="#FF0000"
     id="line2276" />
  <line
     x1="400.0"
     y1="150.0"
     x2="450.0"
     y2="150.0"
     stroke="#000000"
     id="line2278" />
  <line
     x1="400.0"
     y1="200.0"
     x2="450.0"
     y2="200.0"
     stroke="#00FF00"
     id="line2280" />
  <line
     x1="450.0"
     y1="150.0"
     x2="450.0"
     y2="200.0"
     stroke="#000000"
     id="line2282" />
  <line
     x1="400.0"
     y1="250.0"
     x2="450.0"
     y2="250.0"
     stroke="#000000"
     id="line2284" />
  <line
     x1="450.0"
     y1="200.0"
     x2="450.0"
     y2="250.0"
     stroke="#FF0000"
     id="line2286" />
  <line
     x1="450.0"
     y1="250.0"
     x2="450.0"
     y2="300.0"
     stroke="#00FF00"
     id="line2288" />
  <line
     x1="450.0"
     y1="300.0"
     x2="450.0"
     y2="350.0"
     stroke="#00FF00"
     id="line2290" />
  <line
     x1="400.0"
     y1="400.0"
     x2="450.0"
     y2="400.0"
     stroke="#000000"
     id="line2292" />
  <line
     x1="400.0"
     y1="450.0"
     x2="450.0"
     y2="450.0"
     stroke="#00FF00"
     id="line2294" />
  <line
     x1="450.0"
     y1="400.0"
     x2="450.0"
     y2="450.0"
     stroke="#000000"
     id="line2296" />
  <line
     x1="400.0"
     y1="500.0"
     x2="450.0"
     y2="500.0"
     stroke="#000000"
     id="line2298" />
  <line
     x1="500.0"
     y1="0.0"
     x2="500.0"
     y2="50.0"
     stroke="#000000"
     id="line2300" />
  <line
     x1="450.0"
     y1="100.0"
     x2="500.0"
     y2="100.0"
     stroke="#00FF00"
     id="line2302" />
  <line
     x1="500.0"
     y1="50.0"
     x2="500.0"
     y2="100.0"
     stroke="#000000"
     id="line2304" />
  <line
     x1="500.0"
     y1="100.0"
     x2="500.0"
     y2="150.0"
     stroke="#000000"
     id="line2306" />
  <line
     x1="500.0"
     y1="150.0"
     x2="500.0"
     y2="200.0"
     stroke="#000000"
     id="line2308" />
  <line
     x1="450.0"
     y1="250.0"
     x2="500.0"
     y2="250.0"
     stroke="#000000"
     id="line2310" />
  <line
     x1="500.0"
     y1="200.0"
     x2="500.0"
     y2="250.0"
     stroke="#000000"
     id="line2312" />
  <line
     x1="500.0"
     y1="250.0"
     x2="500.0"
     y2="300.0"
     stroke="#000000"
     id="line2314" />
  <line
     x1="500.0"
     y1="300.0"
     x2="500.0"
     y2="350.0"
     stroke="#000000"
     id="line2316" />
  <line
     x1="500.0"
     y1="350.0"
     x2="500.0"
     y2="400.0"
     stroke="#000000"
     id="line2318" />
  <line
     x1="450.0"
     y1="450.0"
     x2="500.0"
     y2="450.0"
     stroke="#FF0000"
     id="line2320" />
  <line
     x1="500.0"
     y1="400.0"
     x2="500.0"
     y2="450.0"
     stroke="#000000"
     id="line2322" />
  <line
     x1="450.0"
     y1="500.0"
     x2="500.0"
     y2="500.0"
     stroke="#000000"
     id="line2324" />
  <line
     x1="500.0"
     y1="450.0"
     x2="500.0"
     y2="500.0"
     stroke="#000000"
     id="line2326" />
  <line
     x1="0"
     y1="0"
     x2="500"
     y2="0"
     stroke="#000000"
     id="line2328" />
  <line
     x1="0"
     y1="0"
     x2="0"
     y2="500"
     stroke="#000000"
     id="line2330" />
</svg>
